0
SECTION
2
HEADER
9
$INSUNITS
70
4
9
$ACADVER
1
AC1014
9
$HANDSEED
5
FFFF
0
ENDSEC
0
SECTION
2
TABLES
0
TABLE
2
VPORT
5
8
100
AcDbSymbolTable
0
ENDTAB
0
TABLE
2
LTYPE
5
5
100
AcDbSymbolTable
0
LTYPE
5
14
100
AcDbSymbolTableRecord
100
AcDbLinetypeTableRecord
2
BYBLOCK
70
0
0
LTYPE
5
15
100
AcDbSymbolTableRecord
100
AcDbLinetypeTableRecord
2
BYLAYER
70
0
0
ENDTAB
0
TABLE
2
LAYER
5
2
100
AcDbSymbolTable
70
2
0
LAYER
5
50
100
AcDbSymbolTableRecord
100
AcDbLayerTableRecord
2
0
70
0
6
CONTINUOUS
0
ENDTAB
0
TABLE
2
STYLE
5
3
100
AcDbSymbolTable
70
1
0
STYLE
5
11
100
AcDbSymbolTableRecord
100
AcDbTextStyleTableRecord
2
STANDARD
70
0
0
ENDTAB
0
TABLE
2
VIEW
5
6
100
AcDbSymbolTable
70
0
0
ENDTAB
0
TABLE
2
UCS
5
7
100
AcDbSymbolTable
70
0
0
ENDTAB
0
TABLE
2
APPID
5
9
100
AcDbSymbolTable
70
2
0
APPID
5
12
100
AcDbSymbolTableRecord
100
AcDbRegAppTableRecord
2
ACAD
70
0
0
ENDTAB
0
TABLE
2
DIMSTYLE
5
A
100
AcDbSymbolTable
70
1
0
ENDTAB
0
TABLE
2
BLOCK_RECORD
5
1
100
AcDbSymbolTable
70
1
0
BLOCK_RECORD
5
1F
100
AcDbSymbolTableRecord
100
AcDbBlockTableRecord
2
*MODEL_SPACE
0
BLOCK_RECORD
5
1B
100
AcDbSymbolTableRecord
100
AcDbBlockTableRecord
2
*PAPER_SPACE
0
ENDTAB
0
ENDSEC
0
SECTION
2
BLOCKS
0
BLOCK
5
20
100
AcDbEntity
100
AcDbBlockBegin
2
*MODEL_SPACE
0
ENDBLK
5
21
100
AcDbEntity
100
AcDbBlockEnd
0
BLOCK
5
1C
100
AcDbEntity
100
AcDbBlockBegin
2
*PAPER_SPACE
0
ENDBLK
5
1D
100
AcDbEntity
100
AcDbBlockEnd
0
ENDSEC
0
SECTION
2
ENTITIES
0
ARC
5
100
100
AcDbEntity
8
0
100
AcDbCircle
10
-15.039136838434853
20
16.360816402606197
30
0
40
4.0000100000119989
210
0
220
0
230
1
100
AcDbArc
50
90.000157562950406
51
179.99985676181751
0
LINE
5
101
100
AcDbEntity
8
0
100
AcDbLine
10
-19.039146838434352
20
16.360826402609639
30
0
11
-19.039147838437437
21
13.360826402609643
31
0
0
LINE
5
102
100
AcDbEntity
8
0
100
AcDbLine
10
-19.039147838437437
20
13.360826402609643
30
0
11
-19.039147838457655
21
-10.096554597390368
31
8.8817841970012523e-15
0
LINE
5
103
100
AcDbEntity
8
0
100
AcDbLine
10
-19.039147838457655
20
-10.096554597390368
30
8.8817841970012523e-15
11
-19.039147338691048
21
-15.63917359738328
31
0
0
ARC
5
104
100
AcDbEntity
8
0
100
AcDbCircle
10
-15.039126838462426
20
-15.639153597393808
30
0
40
4.0000205002786222
210
0
220
0
230
1
100
AcDbArc
50
180.00028647763719
51
269.99971352248542
0
LINE
5
105
100
AcDbEntity
8
0
100
AcDbLine
10
-15.039146838465873
20
-19.639173597393807
30
0
11
13.960852161534129
21
-19.639173597418779
31
0
0
ARC
5
106
100
AcDbEntity
8
0
100
AcDbCircle
10
13.960833161537574
20
-15.639163597418793
30
0
40
4.000010000045112
210
0
220
0
230
1
100
AcDbArc
50
270.00027215422296
51
359.99985676181757
0
LINE
5
107
100
AcDbEntity
8
0
100
AcDbLine
10
17.960843161575074
20
-15.639173597422237
30
0
11
17.954813161542347
21
-10.09655459742223
31
8.8817841970012523e-15
0
LINE
5
108
100
AcDbEntity
8
0
100
AcDbLine
10
17.954813161542347
20
-10.09655459742223
30
8.8817841970012523e-15
11
17.954813161562562
21
13.360826402577768
31
0
0
LINE
5
109
100
AcDbEntity
8
0
100
AcDbLine
10
17.954813161562562
20
13.360826402577768
30
0
11
17.954813161565149
21
16.360826361005028
31
0
0
ARC
5
110
100
AcDbEntity
8
0
100
AcDbCircle
10
13.960853161565145
20
16.360836402581207
30
0
40
3.9999900000119992
210
0
220
0
230
1
100
AcDbArc
50
-0.00014394380607126451
51
89.999999999950646
0
LINE
5
111
100
AcDbEntity
8
0
100
AcDbLine
10
13.960853161568592
20
20.360826402593204
30
0
11
-15.039147838431408
21
20.36082640260307
31
0
0
ARC
5
112
100
AcDbEntity
8
0
100
AcDbCircle
10
-9.5997468384403124
20
10.021846402601504
30
0
40
1.0000270806330005
210
0
220
0
230
1
100
AcDbArc
50
178.0034650735625
51
269.99822388968801
0
LINE
5
113
100
AcDbEntity
8
0
100
AcDbLine
10
-10.599166838439963
20
10.056686402602356
30
0
11
-10.533519986902478
21
11.938314407767905
31
0
0
ARC
5
114
100
AcDbEntity
8
0
100
AcDbCircle
10
-9.5341668384386935
20
11.903486402601445
30
0
40
0.99996000080000069
210
0
220
-0
230
1
100
AcDbArc
50
89.997708077094515
51
178.00401848754413
0
LINE
5
115
100
AcDbEntity
8
0
100
AcDbLine
10
-9.5341268384378335
20
12.903446402601412
30
0
11
-6.734069838437831
21
12.903445402599036
31
0
0
LINE
5
116
100
AcDbEntity
8
0
100
AcDbLine
10
-6.734069838437831
20
12.903445402599036
30
0
11
-6.7340698384369695
21
13.903445402413798
31
0
0
ARC
5
117
100
AcDbEntity
8
0
100
AcDbCircle
10
-5.7340268384369697
20
13.90340640259817
30
0
40
1.0000400008000012
210
0
220
0
230
1
100
AcDbArc
50
90.002291739460375
51
179.99776557127774
0
LINE
5
118
100
AcDbEntity
8
0
100
AcDbLine
10
-5.7340668384361084
20
14.903446402598204
30
0
11
5.609423161549647
21
14.903445902359781
31
0
0
ARC
5
119
100
AcDbEntity
8
0
100
AcDbCircle
10
5.6094331615630333
20
13.903456402588411
30
0
40
0.99999000005000005
210
0
220
0
230
1
100
AcDbArc
50
-0.00057296354382177473
51
90.000572964578367
0
LINE
5
120
100
AcDbEntity
8
0
100
AcDbLine
10
6.6094231615630328
20
13.903446402587548
30
0
11
6.6094231615596843
21
10.021816402587543
31
0
0
ARC
5
121
100
AcDbEntity
8
0
100
AcDbCircle
10
5.6094131615596865
20
10.021826402588406
30
0
40
1.0000100000499983
210
0
220
0
230
1
100
AcDbArc
50
270.00057295201628
51
359.99942704790618
0
LINE
5
122
100
AcDbEntity
8
0
100
AcDbLine
10
5.6094231615588255
20
9.0218164025884064
30
0
11
-9.5997778382526029
21
9.0218193224489855
31
0
0
ARC
5
123
100
AcDbEntity
8
0
100
AcDbCircle
10
3.912303161543278
20
-9.0154335974101265
30
8.8817841970012523e-15
40
6.5000200000000019
210
0
220
0
230
1
100
AcDbArc
50
269.99997355580973
51
307.62509335304662
0
LINE
5
124
100
AcDbEntity
8
0
100
AcDbLine
10
3.9123001615286257
20
-15.51546359741039
30
0
11
-3.4245568561603168
21
-15.515456415192821
31
0
0
ARC
5
125
100
AcDbEntity
8
0
100
AcDbCircle
10
-3.3520568384523708
20
-3.9726035974038778
30
8.8817841970012523e-15
40
11.543080499836002
210
0
220
0
230
1
100
AcDbArc
50
195.96398326109485
51
269.64013312207896
0
LINE
5
126
100
AcDbEntity
8
0
100
AcDbLine
10
-14.449975836892953
20
-7.1473321416649069
30
8.8817841970012523e-15
11
-14.449975506903785
21
-5.6165535872803121
31
8.8817841970012523e-15
0
ARC
5
127
100
AcDbEntity
8
0
100
AcDbCircle
10
-13.927156838453786
20
-5.6171635973947689
30
8.8817841970012523e-15
40
0.52281902432900029
210
0
220
-0
230
1
100
AcDbArc
50
84.731244706575566
51
179.93314892664176
0
LINE
5
128
100
AcDbEntity
8
0
100
AcDbLine
10
-13.879147631544555
20
-5.0965535242572289
30
8.8817841970012523e-15
11
-6.0391478384533421
21
-5.0965545974015605
31
8.8817841970012523e-15
0
LINE
5
129
100
AcDbEntity
8
0
100
AcDbLine
10
-6.0391478384533421
20
-5.0965545974015605
30
8.8817841970012523e-15
11
-6.0391468384519253
21
-3.4546335974015587
31
8.8817841970012523e-15
0
ARC
5
130
100
AcDbEntity
8
0
100
AcDbCircle
10
-5.0391768384519242
20
-3.4546035974024161
30
8.8817841970012523e-15
40
0.99997000044999984
210
0
220
-0
230
1
100
AcDbArc
50
89.998338372496377
51
180.00171892476874
0
LINE
5
131
100
AcDbEntity
8
0
100
AcDbLine
10
-5.0391478384510613
20
-2.4546335973729287
30
8.8817841970012523e-15
11
0.41028316154893663
21
-2.4546335974071178
31
8.8817841970012523e-15
0
LINE
5
132
100
AcDbEntity
8
0
100
AcDbLine
10
0.41028316154893663
20
-2.4546335974071178
30
8.8817841970012523e-15
11
0.41028316154911426
21
-2.2483305974071124
31
8.8817841970012523e-15
0
LINE
5
133
100
AcDbEntity
8
0
100
AcDbLine
10
0.41028316154911426
20
-2.2483305974071124
30
8.8817841970012523e-15
11
0.41028316155010902
21
-1.0965535974071097
31
8.8817841970012523e-15
0
ARC
5
134
100
AcDbEntity
8
0
100
AcDbCircle
10
1.4102931615501069
20
-1.096563597407977
30
8.8817841970012523e-15
40
1.0000100000500003
210
0
220
0
230
1
100
AcDbArc
50
90.00057295310495
51
179.99942704790621
0
LINE
5
135
100
AcDbEntity
8
0
100
AcDbLine
10
1.4102831615319664
20
-0.096553597407976532
30
8.8817841970012523e-15
11
6.9608531615509683
21
-0.096553597412757569
31
8.8817841970012523e-15
0
ARC
5
136
100
AcDbEntity
8
0
100
AcDbCircle
10
6.9608631615501082
20
-1.096543597412766
30
8.8817841970012523e-15
40
0.99999000004999972
210
0
220
0
230
1
100
AcDbArc
50
-0.00063026077138580105
51
90.000572963475477
0
LINE
5
137
100
AcDbEntity
8
0
100
AcDbLine
10
7.9608531615396068
20
-1.0965545974347126
30
8.8817841970012523e-15
11
7.9608521615483818
21
-3.0965545974136202
31
8.8817841970012523e-15
0
LINE
5
138
100
AcDbEntity
8
0
100
AcDbLine
10
7.9608521615483818
20
-3.0965545974136202
30
8.8817841970012523e-15
11
13.460853161548387
21
-3.0965535974183558
31
8.8817841970012523e-15
0
ARC
5
139
100
AcDbEntity
8
0
100
AcDbCircle
10
13.460863161547527
20
-4.0965435974183597
30
8.8817841970012523e-15
40
0.99999000004999972
210
0
220
0
230
1
100
AcDbArc
50
-0.00063026077138580105
51
90.000572963475477
0
LINE
5
140
100
AcDbEntity
8
0
100
AcDbLine
10
14.460853161537026
20
-4.0965545974409183
30
8.8817841970012523e-15
11
14.460853161546229
21
-5.5965535974192173
31
8.8817841970012523e-15
0
ARC
5
141
100
AcDbEntity
8
0
100
AcDbCircle
10
13.460843161546233
20
-5.5965435974183633
30
8.8817841970012523e-15
40
1.0000100000500007
210
0
220
0
230
1
100
AcDbArc
50
270.00051565582106
51
359.99942704790618
0
LINE
5
142
100
AcDbEntity
8
0
100
AcDbLine
10
13.460852161528116
20
-6.5965535974278646
30
8.8817841970012523e-15
11
11.210852161545365
21
-6.5965545974164188
31
8.8817841970012523e-15
0
LINE
5
143
100
AcDbEntity
8
0
100
AcDbLine
10
11.210852161545365
20
-6.5965545974164188
30
8.8817841970012523e-15
11
11.210850939503541
21
-9.8752935974354177
31
8.8817841970012523e-15
0
ARC
5
144
100
AcDbEntity
8
0
100
AcDbCircle
10
7.7109131615425364
20
-9.8753235974134093
30
8.8817841970012523e-15
40
3.4999377780900023
210
0
220
0
230
1
100
AcDbArc
50
-52.375309266399746
51
0.00049111431998571822
0
LINE
5
145
100
AcDbEntity
8
0
100
AcDbLine
10
9.8475780387960299
20
-12.647367545985093
30
8.8817841970012523e-15
11
7.8805140073357212
21
-14.16359469470839
31
8.8817841970012523e-15
0
CIRCLE
5
146
100
AcDbEntity
8
0
100
AcDbCircle
10
-16.209147838435982
20
15.050154402607198
30
0
40
1.1000000000000001
210
-1.1210387714598537e-44
220
0
230
1
0
CIRCLE
5
147
100
AcDbEntity
8
0
100
AcDbCircle
10
-4.8491478384333213
20
18.138826402597413
30
0
40
0.38100000000000001
210
3.363116314379561e-44
220
0
230
1
0
CIRCLE
5
148
100
AcDbEntity
8
0
100
AcDbCircle
10
-2.3091478384333208
20
18.138826402595225
30
0
40
0.38100000000000001
210
3.363116314379561e-44
220
0
230
1
0
CIRCLE
5
149
100
AcDbEntity
8
0
100
AcDbCircle
10
-4.9791478384438914
20
5.8734454025975245
30
0
40
0.5
210
-3.363116314379561e-44
220
0
230
1
0
CIRCLE
5
150
100
AcDbEntity
8
0
100
AcDbCircle
10
-4.9791478384460452
20
3.3734454025975245
30
0
40
0.5
210
-3.363116314379561e-44
220
0
230
1
0
CIRCLE
5
151
100
AcDbEntity
8
0
100
AcDbCircle
10
-4.9791478384481991
20
0.87344540259752457
30
0
40
0.5
210
-3.363116314379561e-44
220
0
230
1
0
CIRCLE
5
152
100
AcDbEntity
8
0
100
AcDbCircle
10
0.23085216156667698
20
18.13882640259304
30
0
40
0.38100000000000001
210
3.363116314379561e-44
220
0
230
1
0
CIRCLE
5
153
100
AcDbEntity
8
0
100
AcDbCircle
10
2.770852161566677
20
18.138826402590851
30
0
40
0.38100000000000001
210
3.363116314379561e-44
220
0
230
1
0
CIRCLE
5
154
100
AcDbEntity
8
0
100
AcDbCircle
10
14.790852161564025
20
15.050154402580498
30
0
40
1.1000000000000001
210
-1.1210387714598537e-44
220
0
230
1
0
CIRCLE
5
155
100
AcDbEntity
8
0
100
AcDbCircle
10
-11.879147838450006
20
-1.2265545973965288
30
8.8817841970012523e-15
40
0.5
210
-3.363116314379561e-44
220
0
230
1
0
CIRCLE
5
156
100
AcDbEntity
8
0
100
AcDbCircle
10
-9.3791478384500042
20
-1.2265545973986827
30
8.8817841970012523e-15
40
0.5
210
-3.363116314379561e-44
220
0
230
1
0
CIRCLE
5
157
100
AcDbEntity
8
0
100
AcDbCircle
10
-10.629147838452159
20
-3.7265545973976035
30
8.8817841970012523e-15
40
0.5
210
-3.363116314379561e-44
220
0
230
1
0
CIRCLE
5
158
100
AcDbEntity
8
0
100
AcDbCircle
10
-6.8791478384499634
20
-1.178178597400831
30
8.8817841970012523e-15
40
0.5
210
-3.363116314379561e-44
220
0
230
1
0
CIRCLE
5
159
100
AcDbEntity
8
0
100
AcDbCircle
10
-8.1291478384521589
20
-3.7265545973997574
30
8.8817841970012523e-15
40
0.5
210
-3.363116314379561e-44
220
0
230
1
0
CIRCLE
5
160
100
AcDbEntity
8
0
100
AcDbCircle
10
-3.3791478384498319
20
-1.0265545974038606
30
8.8817841970012523e-15
40
0.5
210
-3.363116314379561e-44
220
0
230
1
0
CIRCLE
5
161
100
AcDbEntity
8
0
100
AcDbCircle
10
-0.87914783844983191
20
-1.0265545974060144
30
8.8817841970012523e-15
40
0.5
210
-3.363116314379561e-44
220
0
230
1
0
CIRCLE
5
162
100
AcDbEntity
8
0
100
AcDbCircle
10
-14.609147838463555
20
-16.94984559739418
30
0
40
1.1000000000000001
210
-1.1210387714598537e-44
220
0
230
1
0
CIRCLE
5
163
100
AcDbEntity
8
0
100
AcDbCircle
10
9.5208521615499908
20
-1.226554597414963
30
8.8817841970012523e-15
40
0.5
210
-3.363116314379561e-44
220
0
230
1
0
CIRCLE
5
164
100
AcDbEntity
8
0
100
AcDbCircle
10
12.02085216155
20
-1.2265545974171168
30
8.8817841970012523e-15
40
0.5
210
-3.363116314379561e-44
220
0
230
1
0
CIRCLE
5
165
100
AcDbEntity
8
0
100
AcDbCircle
10
13.390852161536451
20
-16.949845597418296
30
0
40
1.1000000000000001
210
-1.1210387714598537e-44
220
0
230
1
0
ENDSEC
0
SECTION
2
OBJECTS
0
DICTIONARY
5
C
100
AcDbDictionary
3
ACAD_GROUP
350
D
3
ACAD_MLINESTYLE
350
17
0
DICTIONARY
5
D
100
AcDbDictionary
0
DICTIONARY
5
1A
330
C
100
AcDbDictionary
0
DICTIONARY
5
17
100
AcDbDictionary
0
ENDSEC
0
EOF
